# xmcd
# 
# Track frame offsets:
#     183
#     15183
#     29938
#     44028
#     61055
#     73828
#     89523
#     110145
#     123848
#     139005
#     153655
#     170083
#     185943
#     199828
#     214730
# 
# Disc length: 2885
# 
# Revision: 4
# Processed by: cddbd v1.5.2PL0 Copyright (c) Steve Scherf et al.
# Submitted via: fre:ac v1.1beta1pre5
# 
DISCID=ea0b430f
DTITLE=Truck Stop - Rodeo
DYEAR=1982
DGENRE=Country
TTITLE0=Country New Wave
TTITLE1=Keiner meiner Freunde hat mehr Zeit
TTITLE2=Das gibt's doch nur in Dallas
TTITLE3=UKE - Intensivstation
TTITLE4=Ich und mein Diesel
TTITLE5=Ich steh' auf Jeans und Country-Music
TTITLE6=Frankfurt - Airport
TTITLE7=Hillbilly Country Lilly
TTITLE8=Mein Opa, das bin ich
TTITLE9=Wer hat mir den Truck geknackt?
TTITLE10=Die Sonne steht tief
TTITLE11=Geiger in der County Band
TTITLE12=Asphaltfieber
TTITLE13=Black Jack
TTITLE14=Country-kurz
EXTD=
EXTT0=
EXTT1=
EXTT2=
EXTT3=
EXTT4=
EXTT5=
EXTT6=
EXTT7=
EXTT8=
EXTT9=
EXTT10=
EXTT11=
EXTT12=
EXTT13=
EXTT14=
PLAYORDER=
